
<svg xmlns="http://www.w3.org/2000/svg" version="1.1" xmlns:xlink="http://www.w3.org/1999/xlink" xmlns:svgjs="http://svgjs.dev/svgjs" width="1500" height="265" viewBox="0 0 1500 265"><g transform="matrix(1,0,0,1,-0.9090909090911055,-0.03766527719264445)"><svg viewBox="0 0 396 70" data-background-color="#231239" preserveAspectRatio="xMidYMid meet" height="265" width="1500" xmlns="http://www.w3.org/2000/svg" xmlns:xlink="http://www.w3.org/1999/xlink"><g id="tight-bounds" transform="matrix(1,0,0,1,0.24000000000003752,0.009949318503714721)"><svg viewBox="0 0 395.5199999999999 69.97996425520961" height="69.97996425520961" width="395.5199999999999"><g><svg viewBox="0 0 494.85143527261573 87.5548284587804" height="69.97996425520961" width="395.5199999999999"><g transform="matrix(1,0,0,1,99.33143527261578,18.835008364678444)"><svg viewBox="0 0 395.52 49.88481172942352" height="49.88481172942352" width="395.52"><g id="textblocktransform"><svg viewBox="0 0 395.52 49.88481172942352" height="49.88481172942352" width="395.52" id="textblock"><g><svg viewBox="0 0 395.52 49.88481172942352" height="49.88481172942352" width="395.52"><g transform="matrix(1,0,0,1,0,0)"><svg width="395.52" viewBox="2.15 -37.35 300.08000000000004 37.85" height="49.88481172942352" data-palette-color="#ffffff"><g class="wordmark-text-0" data-fill-palette-color="primary" id="text-0"><path d="M12.35 0.5Q9.35 0.5 6.4-0.55 3.45-1.6 2.15-2.9L2.15-2.9 4.8-7.65Q5.85-6.7 8.08-5.68 10.3-4.65 12.35-4.65L12.35-4.65Q15-4.65 16.68-5.9 18.35-7.15 18.35-9.35L18.35-9.35Q18.35-11.05 17.45-12.3 16.55-13.55 15.25-14.38 13.95-15.2 11.55-16.4L11.55-16.4Q8.7-17.8 7.65-18.5L7.65-18.5Q2.8-21.75 2.8-27.5L2.8-27.5Q2.8-32.25 5.95-34.77 9.1-37.3 13.9-37.3L13.9-37.3Q19.05-37.3 22.65-34.35L22.65-34.35 20-29.8Q19.05-30.8 17.32-31.53 15.6-32.25 13.65-32.25L13.65-32.25Q11.15-32.25 9.73-31.13 8.3-30 8.3-27.8L8.3-27.8Q8.3-26.25 9.2-25.03 10.1-23.8 11.48-22.9 12.85-22 15.2-20.7L15.2-20.7Q17.45-19.45 18.65-18.73 19.85-18 20.9-17L20.9-17Q22.35-15.7 23.25-13.9 24.15-12.1 24.15-9.95L24.15-9.95Q24.15-6.6 22.63-4.25 21.1-1.9 18.43-0.7 15.75 0.5 12.35 0.5L12.35 0.5ZM47.05 0.5Q42.05 0.5 37.82-1.83 33.6-4.15 31.1-8.45 28.6-12.75 28.6-18.45L28.6-18.45Q28.6-24.2 31.1-28.48 33.6-32.75 37.82-35.05 42.05-37.35 47.05-37.35L47.05-37.35Q52.05-37.35 56.27-35.05 60.5-32.75 63-28.48 65.5-24.2 65.5-18.45L65.5-18.45Q65.5-12.75 63-8.45 60.5-4.15 56.27-1.83 52.05 0.5 47.05 0.5L47.05 0.5ZM47.05-4.55Q50.5-4.55 53.35-6.18 56.2-7.8 57.87-10.93 59.55-14.05 59.55-18.4L59.55-18.4Q59.55-22.8 57.87-25.93 56.2-29.05 53.37-30.65 50.55-32.25 47.05-32.25L47.05-32.25Q43.55-32.25 40.7-30.65 37.85-29.05 36.2-25.93 34.55-22.8 34.55-18.4L34.55-18.4Q34.55-14.05 36.25-10.93 37.95-7.8 40.82-6.18 43.7-4.55 47.05-4.55L47.05-4.55ZM88.44 0.35Q82.75 0.35 78.57-2.2 74.39-4.75 72.19-9.03 70-13.3 70-18.45L70-18.45Q70-23.9 72.37-28.2 74.75-32.5 79.05-34.93 83.34-37.35 88.8-37.35L88.8-37.35Q91.25-37.35 93.37-36.83 95.5-36.3 96.89-35.63 98.3-34.95 98.75-34.5L98.75-34.5 96.3-29.5Q93.25-32.2 88.34-32.2L88.34-32.2Q84.89-32.2 82.09-30.5 79.3-28.8 77.69-25.65 76.09-22.5 76.09-18.35L76.09-18.35Q76.09-14.55 77.52-11.45 78.94-8.35 81.69-6.55 84.44-4.75 88.25-4.75L88.25-4.75Q92.64-4.75 96.75-7.25L96.75-7.25 98.39-2.5Q97.3-1.5 94.37-0.58 91.44 0.35 88.44 0.35L88.44 0.35ZM104.84 0L104.84-36.75 110.44-36.75 110.44 0 104.84 0ZM135.79 0.5Q130.79 0.5 126.57-1.83 122.34-4.15 119.84-8.45 117.34-12.75 117.34-18.45L117.34-18.45Q117.34-24.2 119.84-28.48 122.34-32.75 126.57-35.05 130.79-37.35 135.79-37.35L135.79-37.35Q140.79-37.35 145.02-35.05 149.24-32.75 151.74-28.48 154.24-24.2 154.24-18.45L154.24-18.45Q154.24-12.75 151.74-8.45 149.24-4.15 145.02-1.83 140.79 0.5 135.79 0.5L135.79 0.5ZM135.79-4.55Q139.24-4.55 142.09-6.18 144.94-7.8 146.62-10.93 148.29-14.05 148.29-18.4L148.29-18.4Q148.29-22.8 146.62-25.93 144.94-29.05 142.12-30.65 139.29-32.25 135.79-32.25L135.79-32.25Q132.29-32.25 129.44-30.65 126.59-29.05 124.94-25.93 123.29-22.8 123.29-18.4L123.29-18.4Q123.29-14.05 124.99-10.93 126.69-7.8 129.56-6.18 132.44-4.55 135.79-4.55L135.79-4.55ZM177.64 0.5Q172.19 0.5 167.89-2 163.59-4.5 161.16-8.88 158.74-13.25 158.74-18.7L158.74-18.7Q158.74-24 161.19-28.25 163.64-32.5 167.99-34.9 172.34-37.3 177.79-37.3L177.79-37.3Q180.74-37.3 183.11-36.77 185.49-36.25 186.99-35.58 188.49-34.9 189.04-34.4L189.04-34.4 186.84-29.7Q183.74-32.2 177.69-32.2L177.69-32.2Q173.69-32.2 170.74-30.45 167.79-28.7 166.24-25.7 164.69-22.7 164.69-19L164.69-19Q164.69-14.8 166.36-11.5 168.04-8.2 171.01-6.38 173.99-4.55 177.74-4.55L177.74-4.55Q180.09-4.55 182.24-5.13 184.39-5.7 185.89-6.95L185.89-6.95 185.89-14.05 178.34-14.05 178.34-19.2 191.44-19.2 191.44-4.8Q189.64-2.55 186.01-1.03 182.39 0.5 177.64 0.5L177.64 0.5ZM222.49 0L216.04 0 208.64-13.9Q206.34-13.8 204.54-13.8L204.54-13.8 203.14-13.8 203.14 0 197.69 0 197.69-36.75 206.04-36.75Q212.39-36.75 216.49-34.13 220.59-31.5 220.59-25.6L220.59-25.6Q220.59-21.9 218.86-19.23 217.14-16.55 213.74-15.1L213.74-15.1 222.49 0ZM203.14-18.35L206.69-18.35Q211.59-18.35 213.41-20.48 215.24-22.6 215.24-25.55L215.24-25.55Q215.24-32.1 206.49-32.1L206.49-32.1 203.14-32.1 203.14-18.35ZM241.08-36.8L241.63-36.8 259.33 0 252.88 0 249.73-7.2 232.88-7.2 229.73 0 223.48 0 241.08-36.8ZM241.33-26.15L239.13-21.15 235.13-12.25 247.53-12.25 243.58-21.1 241.43-26.15 241.33-26.15ZM280.73 0L271.88-17.15 269.58-22.35 268.53-17.15 265.13 0 259.58 0 267.18-36.75 267.78-36.75 277.88-16.9 280.88-10.25 283.88-16.9 293.78-36.75 294.33-36.75 302.23 0 296.73 0 293.03-17.15 291.93-22.35 289.93-17.15 281.03 0 280.73 0Z" fill="#ffffff" data-fill-palette-color="primary"></path></g></svg></g></svg></g></svg></g></svg></g><g><svg viewBox="0 0 87.55482845878039 87.5548284587804" height="87.5548284587804" width="87.55482845878039"><g><svg></svg></g><g id="icon-0"><svg viewBox="0 0 87.55482845878039 87.5548284587804" height="87.5548284587804" width="87.55482845878039"><g><path transform="scale(0.87555,0.87555)" d="M30 100c-16.569 0-30-13.431-30-30v-40c0-16.569 13.431-30 30-30h40c16.569 0 30 13.431 30 30v40c0 16.569-13.431 30-30 30z" fill="#0f3054" fill-rule="nonzero" stroke="none" stroke-width="1" stroke-linecap="butt" stroke-linejoin="miter" stroke-miterlimit="10" stroke-dasharray="" stroke-dashoffset="0" font-family="none" font-weight="none" font-size="none" text-anchor="none" style="mix-blend-mode: normal" data-fill-palette-color="accent"></path></g><g transform="matrix(1,0,0,1,17.510965691756077,17.510965691756084)"><svg viewBox="0 0 52.53289707526824 52.53289707526824" height="52.53289707526824" width="52.53289707526824"><g><svg xmlns="http://www.w3.org/2000/svg" xmlns:xlink="http://www.w3.org/1999/xlink" version="1.1" x="0" y="0" viewBox="0 0 26 26" style="enable-background:new 0 0 26 26;" xml:space="preserve" height="52.53289707526824" width="52.53289707526824" class="icon-cg-0" data-fill-palette-color="quaternary" id="cg-0"><g fill="#d62176" data-fill-palette-color="quaternary"><path d="M13 0C5.82 0 0 5.82 0 13s5.82 13 13 13c7.18 0 13-5.82 13-13S20.18 0 13 0zM11.248 20.07c-1.171 1.172-3.155 1.087-5.303-1.06C3.798 16.862 4.178 13 4.178 13s3.862-0.38 6.01 1.768C12.335 16.915 12.42 18.899 11.248 20.07zM10 9.5C10 6.463 13 4 13 4s3 2.463 3 5.5S14.656 14 13 14C11.344 14 10 12.537 10 9.5zM20.055 19.01c-2.148 2.147-4.132 2.232-5.303 1.06-1.172-1.171-1.087-3.155 1.06-5.303C17.96 12.62 21.822 13 21.822 13S22.202 16.862 20.055 19.01z" fill="#d62176" data-fill-palette-color="quaternary"></path></g></svg></g></svg></g></svg></g></svg></g></svg></g><defs></defs></svg><rect width="140" height="70" fill="none" stroke="none" visibility="hidden"></rect></g></svg></g></svg>